<?xml version="1.0" encoding="UTF-8"?>
<svg version="1.1" xmlns="http://www.w3.org/2000/svg" width="159" height="159">
<path d="M0 0 C5.7809725 0.63065155 11.3443706 1.65155132 17 3 C16.71561048 4.89693861 16.42216208 6.79252027 16.125 8.6875 C15.96257812 9.74324219 15.80015625 10.79898438 15.6328125 11.88671875 C15.04106931 14.79794914 14.1968194 17.28955607 13 20 C11.27073126 19.68806536 9.54158956 19.37542638 7.8125 19.0625 C6.84957031 18.88847656 5.88664062 18.71445313 4.89453125 18.53515625 C2.25760028 18.0476265 -0.3719905 17.53328895 -3 17 C-2.36934845 11.2190275 -1.34844868 5.6556294 0 0 Z " fill="#6A97CF" transform="translate(86,94)"/>
<path d="M0 0 C4.95 0.99 9.9 1.98 15 3 C16.10318677 7.41274708 15.64855836 9.40576658 14.5625 13.75 C14.13130859 15.50570312 14.13130859 15.50570312 13.69140625 17.296875 C13.34916016 18.63492188 13.34916016 18.63492188 13 20 C7.147205 19.48517081 1.6702363 18.54642808 -4 17 C-3.71561048 15.10306139 -3.42216208 13.20747973 -3.125 11.3125 C-2.96257813 10.25675781 -2.80015625 9.20101562 -2.6328125 8.11328125 C-2 5 -2 5 0 0 Z " fill="#6A97CF" transform="translate(51,64)"/>
<path d="M0 0 C1.89693861 0.28438952 3.79252027 0.57783792 5.6875 0.875 C6.74324219 1.03742187 7.79898438 1.19984375 8.88671875 1.3671875 C12 2 12 2 17 4 C15.68 9.28 14.36 14.56 13 20 C7.26062468 19.28257809 2.47121309 18.46550351 -3 17 C-2.48517081 11.147205 -1.54642808 5.6702363 0 0 Z " fill="#6998CF" transform="translate(116,58)"/>
<path d="M0 0 C5.852795 0.51482919 11.3297637 1.45357192 17 3 C16.36934845 8.7809725 15.34844868 14.3443706 14 20 C2.47835991 18.07289294 2.47835991 18.07289294 -3 16 C-2.68806536 14.27073126 -2.37542638 12.54158956 -2.0625 10.8125 C-1.88847656 9.84957031 -1.71445312 8.88664062 -1.53515625 7.89453125 C-1.0476265 5.25760028 -0.53328895 2.6280095 0 0 Z " fill="#6A97CF" transform="translate(25,80)"/>
<path d="M0 0 C5.7809725 0.63065155 11.3443706 1.65155132 17 3 C15.07289294 14.52164009 15.07289294 14.52164009 13 20 C11.26969709 19.71515154 9.54079286 19.42180062 7.8125 19.125 C6.84957031 18.96257813 5.88664062 18.80015625 4.89453125 18.6328125 C2.08967396 18.01960483 -0.37224747 17.14333657 -3 16 C-2.40984815 10.49191603 -1.43336231 5.35121931 0 0 Z " fill="#6B96CF" transform="translate(55,44)"/>
<path d="M0 0 C4.95 0.99 9.9 1.98 15 3 C16.10318677 7.41274708 15.64855836 9.40576658 14.5625 13.75 C14.13130859 15.50570312 14.13130859 15.50570312 13.69140625 17.296875 C13.34916016 18.63492188 13.34916016 18.63492188 13 20 C7.2190275 19.36934845 1.6556294 18.34844868 -4 17 C-3.71561048 15.10306139 -3.42216208 13.20747973 -3.125 11.3125 C-2.96257812 10.25675781 -2.80015625 9.20101562 -2.6328125 8.11328125 C-2 5 -2 5 0 0 Z " fill="#6B96CF" transform="translate(101,33)"/>
<path d="M0 0 C7.92 1.98 7.92 1.98 16 4 C15.28257809 9.73937532 14.46550351 14.52878691 13 20 C7.147205 19.48517081 1.6702363 18.54642808 -4 17 C-3.71410149 15.29069188 -3.42098242 13.58259088 -3.125 11.875 C-2.96257812 10.92367187 -2.80015625 9.97234375 -2.6328125 8.9921875 C-2 6 -2 6 0 0 Z " fill="#6A97CF" transform="translate(82,114)"/>
<path d="M0 0 C5.7809725 0.63065155 11.3443706 1.65155132 17 3 C16.52434234 5.45906037 16.04463948 7.91720993 15.5625 10.375 C15.42779297 11.07367188 15.29308594 11.77234375 15.15429688 12.4921875 C14.11328125 17.7734375 14.11328125 17.7734375 13 20 C10.51986371 19.52546129 8.04096744 19.04561015 5.5625 18.5625 C4.85544922 18.42779297 4.14839844 18.29308594 3.41992188 18.15429688 C-1.88671875 17.11328125 -1.88671875 17.11328125 -3 16 C-2.84550243 10.46185633 -1.67670682 5.25368138 0 0 Z " fill="#6A97CF" transform="translate(41,105)"/>
<path d="M0 0 C5.51745357 0.48398716 10.6555011 1.5684378 16 3 C15.48517081 8.852795 14.54642808 14.3297637 13 20 C10.54093963 19.52434234 8.08279007 19.04463948 5.625 18.5625 C4.92632812 18.42779297 4.22765625 18.29308594 3.5078125 18.15429688 C-1.7734375 17.11328125 -1.7734375 17.11328125 -4 16 C-3.52546129 13.51986371 -3.04561015 11.04096744 -2.5625 8.5625 C-2.42779297 7.85544922 -2.29308594 7.14839844 -2.15429688 6.41992188 C-1.11328125 1.11328125 -1.11328125 1.11328125 0 0 Z " fill="#6A97CF" transform="translate(107,99)"/>
<path d="M0 0 C5.852795 0.51482919 11.3297637 1.45357192 17 3 C16.52434234 5.45906037 16.04463948 7.91720993 15.5625 10.375 C15.42779297 11.07367188 15.29308594 11.77234375 15.15429688 12.4921875 C14.11328125 17.7734375 14.11328125 17.7734375 13 20 C8.05 19.01 3.1 18.02 -2 17 C-2.97981368 12.10093161 -2.83321291 10.31289499 -1.5625 5.6875 C-1.27503906 4.61886719 -0.98757812 3.55023438 -0.69140625 2.44921875 C-0.46324219 1.64097656 -0.23507813 0.83273438 0 0 Z " fill="#6A97CF" transform="translate(91,74)"/>
<path d="M0 0 C5.852795 0.51482919 11.3297637 1.45357192 17 3 C16.36934845 8.7809725 15.34844868 14.3443706 14 20 C11.54093963 19.52434234 9.08279007 19.04463948 6.625 18.5625 C5.92632812 18.42779297 5.22765625 18.29308594 4.5078125 18.15429688 C-0.7734375 17.11328125 -0.7734375 17.11328125 -3 16 C-2.68806536 14.27073126 -2.37542638 12.54158956 -2.0625 10.8125 C-1.88847656 9.84957031 -1.71445313 8.88664062 -1.53515625 7.89453125 C-1.0476265 5.25760028 -0.53328895 2.6280095 0 0 Z " fill="#6A97CF" transform="translate(75,49)"/>
<path d="M0 0 C2.46038493 0.44897535 4.91789621 0.90868833 7.375 1.375 C8.07367188 1.50132813 8.77234375 1.62765625 9.4921875 1.7578125 C14.7734375 2.7734375 14.7734375 2.7734375 17 5 C16.48616214 7.62825112 15.8843344 10.06873141 15.125 12.625 C14.92519531 13.33140625 14.72539063 14.0378125 14.51953125 14.765625 C14.0235315 16.51343363 13.5131058 18.25713649 13 20 C7.43109483 19.52013969 2.32932432 18.70084819 -3 17 C-2.48517081 11.147205 -1.54642808 5.6702363 0 0 Z " fill="#6A97CF" transform="translate(66,89)"/>
<path d="M0 0 C5.53814367 0.15449757 10.74631862 1.32329318 16 3 C15.88265487 4.33402882 15.75557824 5.6672014 15.625 7 C15.55539063 7.7425 15.48578125 8.485 15.4140625 9.25 C14.86725327 12.88163867 13.89073003 16.43707988 13 20 C4.585 18.02 4.585 18.02 -4 16 C-3.525625 13.545625 -3.05125 11.09125 -2.5625 8.5625 C-2.41498291 7.78849854 -2.26746582 7.01449707 -2.11547852 6.21704102 C-1.11111111 1.11111111 -1.11111111 1.11111111 0 0 Z " fill="#6A97CF" transform="translate(46,85)"/>
<path d="M0 0 C7.92 1.98 7.92 1.98 16 4 C15.48263876 9.60474681 14.71036463 14.6408575 13 20 C7.147205 19.48517081 1.6702363 18.54642808 -4 17 C-3.52434234 14.54093963 -3.04463948 12.08279007 -2.5625 9.625 C-2.42779297 8.92632812 -2.29308594 8.22765625 -2.15429688 7.5078125 C-1.11328125 2.2265625 -1.11328125 2.2265625 0 0 Z " fill="#6A97CF" transform="translate(96,53)"/>
<path d="M0 0 C2.454375 0.474375 4.90875 0.94875 7.4375 1.4375 C8.21150146 1.58501709 8.98550293 1.73253418 9.78295898 1.88452148 C14.88888889 2.88888889 14.88888889 2.88888889 16 4 C15.84550243 9.53814367 14.67670682 14.74631862 13 20 C7.2075276 19.36809392 1.67401601 18.3298475 -4 17 C-2.68 11.39 -1.36 5.78 0 0 Z " fill="#6A97CF" transform="translate(35,39)"/>
<path d="M0 0 C1.33402882 0.11734513 2.6672014 0.24442176 4 0.375 C5.11375 0.47941406 5.11375 0.47941406 6.25 0.5859375 C9.88163867 1.13274673 13.43707988 2.10926997 17 3 C15.68 8.61 14.36 14.22 13 20 C10.545625 19.525625 8.09125 19.05125 5.5625 18.5625 C4.78849854 18.41498291 4.01449707 18.26746582 3.21704102 18.11547852 C-1.88888889 17.11111111 -1.88888889 17.11111111 -3 16 C-2.84550243 10.46185633 -1.67670682 5.25368138 0 0 Z " fill="#6A97CF" transform="translate(60,24)"/>
<path d="M0 0 C1.65 0.33 3.3 0.66 5 1 C4.67 2.65 4.34 4.3 4 6 C2.35 5.67 0.7 5.34 -1 5 C-0.67 3.35 -0.34 1.7 0 0 Z " fill="#669BD1" transform="translate(102,146)"/>
<path d="M0 0 C1.65 0.33 3.3 0.66 5 1 C4.67 2.65 4.34 4.3 4 6 C2.35 5.67 0.7 5.34 -1 5 C-0.67 3.35 -0.34 1.7 0 0 Z " fill="#6B96CF" transform="translate(61,137)"/>
<path d="M0 0 C1.65 0.33 3.3 0.66 5 1 C4.67 2.65 4.34 4.3 4 6 C2.35 5.67 0.7 5.34 -1 5 C-0.67 3.35 -0.34 1.7 0 0 Z " fill="#6B95CE" transform="translate(41,132)"/>
<path d="M0 0 C2.475 0.495 2.475 0.495 5 1 C5 2.65 5 4.3 5 6 C3.35 5.67 1.7 5.34 0 5 C0 3.35 0 1.7 0 0 Z " fill="#679AD0" transform="translate(106,126)"/>
<path d="M0 0 C1.65 0.33 3.3 0.66 5 1 C4.67 2.65 4.34 4.3 4 6 C2.35 5.67 0.7 5.34 -1 5 C-0.67 3.35 -0.34 1.7 0 0 Z " fill="#6A97CD" transform="translate(25,107)"/>
<path d="M0 0 C1.65 0.33 3.3 0.66 5 1 C4.67 2.65 4.34 4.3 4 6 C2.35 5.67 0.7 5.34 -1 5 C-0.67 3.35 -0.34 1.7 0 0 Z " fill="#6A97CE" transform="translate(136,90)"/>
<path d="M0 0 C1.65 0.33 3.3 0.66 5 1 C4.67 2.65 4.34 4.3 4 6 C2.35 5.67 0.7 5.34 -1 5 C-0.67 3.35 -0.34 1.7 0 0 Z " fill="#669AD0" transform="translate(10,82)"/>
<path d="M0 0 C1.65 0.33 3.3 0.66 5 1 C4.67 2.65 4.34 4.3 4 6 C2.35 5.67 0.7 5.34 -1 5 C-0.67 3.35 -0.34 1.7 0 0 Z " fill="#6998CD" transform="translate(141,70)"/>
<path d="M0 0 C1.65 0.33 3.3 0.66 5 1 C4.67 2.65 4.34 4.3 4 6 C2.35 5.67 0.7 5.34 -1 5 C-0.67 3.35 -0.34 1.7 0 0 Z " fill="#6997CD" transform="translate(44,26)"/>
<path d="M0 0 C1.65 0.33 3.3 0.66 5 1 C4.67 2.65 4.34 4.3 4 6 C2.35 5.67 0.7 5.34 -1 5 C-0.67 3.35 -0.34 1.7 0 0 Z " fill="#6998CE" transform="translate(110,20)"/>
<path d="M0 0 C1.65 0 3.3 0 5 0 C5 1.65 5 3.3 5 5 C3.35 5 1.7 5 0 5 C0 3.35 0 1.7 0 0 Z " fill="#6A97CD" transform="translate(81,142)"/>
<path d="M0 0 C1.65 0.33 3.3 0.66 5 1 C4.67 2.32 4.34 3.64 4 5 C2.35 5 0.7 5 -1 5 C-0.67 3.35 -0.34 1.7 0 0 Z " fill="#6B96CE" transform="translate(66,117)"/>
<path d="M0 0 C1.65 0 3.3 0 5 0 C5 1.65 5 3.3 5 5 C3.35 5 1.7 5 0 5 C0 3.35 0 1.7 0 0 Z " fill="#6A96CF" transform="translate(131,111)"/>
<path d="M0 0 C1.65 0 3.3 0 5 0 C4.67 1.65 4.34 3.3 4 5 C2.35 4.67 0.7 4.34 -1 4 C-0.67 2.68 -0.34 1.36 0 0 Z " fill="#6B98CE" transform="translate(116,86)"/>
<path d="M0 0 C2.475 0.495 2.475 0.495 5 1 C4.67 2.65 4.34 4.3 4 6 C2.68 5.67 1.36 5.34 0 5 C0 3.35 0 1.7 0 0 Z " fill="#6A97CF" transform="translate(75,76)"/>
<path d="M0 0 C1.65 0.33 3.3 0.66 5 1 C4.67 2.32 4.34 3.64 4 5 C2.35 5 0.7 5 -1 5 C-0.67 3.35 -0.34 1.7 0 0 Z " fill="#6A97CF" transform="translate(35,67)"/>
<path d="M0 0 C2.475 0.495 2.475 0.495 5 1 C4.67 2.65 4.34 4.3 4 6 C2.68 5.67 1.36 5.34 0 5 C0 3.35 0 1.7 0 0 Z " fill="#6A97CE" transform="translate(14,62)"/>
<path d="M0 0 C2.475 0.495 2.475 0.495 5 1 C4.67 2.65 4.34 4.3 4 6 C2.68 5.67 1.36 5.34 0 5 C0 3.35 0 1.7 0 0 Z " fill="#6A97CD" transform="translate(125,45)"/>
<path d="M0 0 C1.65 0 3.3 0 5 0 C4.67 1.65 4.34 3.3 4 5 C2.35 4.67 0.7 4.34 -1 4 C-0.67 2.68 -0.34 1.36 0 0 Z " fill="#6A97CF" transform="translate(19,42)"/>
<path d="M0 0 C1.65 0 3.3 0 5 0 C4.67 1.65 4.34 3.3 4 5 C2.35 4.67 0.7 4.34 -1 4 C-0.67 2.68 -0.34 1.36 0 0 Z " fill="#6A96CF" transform="translate(85,36)"/>
<path d="M0 0 C1.98 0.495 1.98 0.495 4 1 C4 2.65 4 4.3 4 6 C2.35 5.67 0.7 5.34 -1 5 C-0.67 3.35 -0.34 1.7 0 0 Z " fill="#6B96CE" transform="translate(90,15)"/>
<path d="M0 0 C1.65 0 3.3 0 5 0 C4.67 1.65 4.34 3.3 4 5 C2.35 4.67 0.7 4.34 -1 4 C-0.67 2.68 -0.34 1.36 0 0 Z " fill="#6C96CE" transform="translate(69,11)"/>
<path d="M0 0 C1.65 0.33 3.3 0.66 5 1 C4.67 2.32 4.34 3.64 4 5 C2.35 5 0.7 5 -1 5 C-0.67 3.35 -0.34 1.7 0 0 Z " fill="#6B96CF" transform="translate(49,6)"/>
</svg>
